<svg id="visual" viewBox="0 0 64 64" width="64" height="64" xmlns="http://www.w3.org/2000/svg" xmlns:xlink="http://www.w3.org/1999/xlink" version="1.1"><rect x="0" y="0" width="64" height="64" fill="#001220"></rect><path d="M0 39L1.5 39.8C3 40.7 6 42.3 9 43C12 43.7 15 43.3 18 43.8C21 44.3 24 45.7 27.2 45C30.3 44.3 33.7 41.7 36.8 40.3C40 39 43 39 46 39.7C49 40.3 52 41.7 55 41.5C58 41.3 61 39.7 62.5 38.8L64 38L64 65L62.5 65C61 65 58 65 55 65C52 65 49 65 46 65C43 65 40 65 36.8 65C33.7 65 30.3 65 27.2 65C24 65 21 65 18 65C15 65 12 65 9 65C6 65 3 65 1.5 65L0 65Z" fill="#fa7268"></path><path d="M0 42L1.5 42.5C3 43 6 44 9 44C12 44 15 43 18 42.8C21 42.7 24 43.3 27.2 43.2C30.3 43 33.7 42 36.8 42.8C40 43.7 43 46.3 46 47.2C49 48 52 47 55 46.5C58 46 61 46 62.5 46L64 46L64 65L62.5 65C61 65 58 65 55 65C52 65 49 65 46 65C43 65 40 65 36.8 65C33.7 65 30.3 65 27.2 65C24 65 21 65 18 65C15 65 12 65 9 65C6 65 3 65 1.5 65L0 65Z" fill="#ef5f67"></path><path d="M0 48L1.5 48.5C3 49 6 50 9 50.5C12 51 15 51 18 50.5C21 50 24 49 27.2 49.2C30.3 49.3 33.7 50.7 36.8 50.8C40 51 43 50 46 49.5C49 49 52 49 55 48.5C58 48 61 47 62.5 46.5L64 46L64 65L62.5 65C61 65 58 65 55 65C52 65 49 65 46 65C43 65 40 65 36.8 65C33.7 65 30.3 65 27.2 65C24 65 21 65 18 65C15 65 12 65 9 65C6 65 3 65 1.5 65L0 65Z" fill="#e34c67"></path><path d="M0 52L1.5 52.3C3 52.7 6 53.3 9 53.7C12 54 15 54 18 53.3C21 52.7 24 51.3 27.2 51.3C30.3 51.3 33.7 52.7 36.8 53.2C40 53.7 43 53.3 46 53.7C49 54 52 55 55 55.3C58 55.7 61 55.3 62.5 55.2L64 55L64 65L62.5 65C61 65 58 65 55 65C52 65 49 65 46 65C43 65 40 65 36.8 65C33.7 65 30.3 65 27.2 65C24 65 21 65 18 65C15 65 12 65 9 65C6 65 3 65 1.5 65L0 65Z" fill="#d53867"></path><path d="M0 57L1.5 57.3C3 57.7 6 58.3 9 58.5C12 58.7 15 58.3 18 58.5C21 58.7 24 59.3 27.2 59C30.3 58.7 33.7 57.3 36.8 56.7C40 56 43 56 46 56.7C49 57.3 52 58.7 55 58.8C58 59 61 58 62.5 57.5L64 57L64 65L62.5 65C61 65 58 65 55 65C52 65 49 65 46 65C43 65 40 65 36.8 65C33.7 65 30.3 65 27.2 65C24 65 21 65 18 65C15 65 12 65 9 65C6 65 3 65 1.5 65L0 65Z" fill="#c62368"></path></svg>