<?xml version="1.0" encoding="UTF-8" standalone="no" ?>
<!DOCTYPE svg PUBLIC "-//W3C//DTD SVG 1.1//EN" "http://www.w3.org/Graphics/SVG/1.1/DTD/svg11.dtd">
<svg xmlns="http://www.w3.org/2000/svg" xmlns:xlink="http://www.w3.org/1999/xlink" version="1.1" width="1080" height="1080" viewBox="0 0 1080 1080" xml:space="preserve">
<desc>Created with Fabric.js 5.2.4</desc>
<defs>
</defs>
<g transform="matrix(1 0 0 1 540 540)" id="264bc217-03ef-44bb-9fa9-4880ef8ec5d7"  >
</g>
<g transform="matrix(1 0 0 1 540 540)" id="0ca087a9-aa3f-4196-a9b1-c8da68c6b532"  >
<rect style="stroke: none; stroke-width: 1; stroke-dasharray: none; stroke-linecap: butt; stroke-dashoffset: 0; stroke-linejoin: miter; stroke-miterlimit: 4; fill: rgb(255,255,255); fill-rule: nonzero; opacity: 1; visibility: hidden;" vector-effect="non-scaling-stroke"  x="-540" y="-540" rx="0" ry="0" width="1080" height="1080" />
</g>
<g transform="matrix(2.26 0 0 2.26 540.76 540.76)"  >
<g style="" vector-effect="non-scaling-stroke"   >
		<g transform="matrix(1 0 0 1 0 0)"  >
<rect style="stroke: none; stroke-width: 1; stroke-dasharray: none; stroke-linecap: butt; stroke-dashoffset: 0; stroke-linejoin: miter; stroke-miterlimit: 4; fill: rgb(14,86,133); fill-rule: nonzero; opacity: 1;" vector-effect="non-scaling-stroke"  x="-240.945" y="-240.945" rx="0" ry="0" width="481.89" height="481.89" />
</g>
		<g transform="matrix(1 0 0 1 41.14 45.59)"  >
<path style="stroke: none; stroke-width: 1; stroke-dasharray: none; stroke-linecap: butt; stroke-dashoffset: 0; stroke-linejoin: miter; stroke-miterlimit: 4; fill: rgb(255,255,255); fill-rule: evenodd; opacity: 1;" vector-effect="non-scaling-stroke"  transform=" translate(-462.56, -342.89)" d="M 487.71 328.94 C 487.59999999999997 329 487.48999999999995 329.06 487.38 329.12 C 469.61 338.89 451.94 348.44 435.99 356.85 C 456.54 347.57000000000005 473.28000000000003 339.40000000000003 489.12 330.98 C 488.61 330.33 488.15 329.65 487.71 328.94 z" stroke-linecap="round" />
</g>
		<g transform="matrix(1 0 0 1 149.75 -28.23)"  >
<path style="stroke: none; stroke-width: 1; stroke-dasharray: none; stroke-linecap: butt; stroke-dashoffset: 0; stroke-linejoin: miter; stroke-miterlimit: 4; fill: rgb(255,255,255); fill-rule: evenodd; opacity: 1;" vector-effect="non-scaling-stroke"  transform=" translate(-571.16, -269.07)" d="M 595.13 239.2 C 599.92 252.39999999999998 576.75 273.44 543.73 295.40999999999997 C 544.02 296.54999999999995 544.26 297.71999999999997 544.4200000000001 298.95 C 544.5000000000001 298.9 544.59 298.84999999999997 544.6700000000001 298.78999999999996 C 585.44 273.76 607.56 258.05 595.13 239.2 z" stroke-linecap="round" />
</g>
		<g transform="matrix(1 0 0 1 40.08 -5.39)"  >
<path style="stroke: none; stroke-width: 1; stroke-dasharray: none; stroke-linecap: butt; stroke-dashoffset: 0; stroke-linejoin: miter; stroke-miterlimit: 4; fill: rgb(255,255,255); fill-rule: evenodd; opacity: 1;" vector-effect="non-scaling-stroke"  transform=" translate(-461.49, -291.91)" d="M 329.38 248.12 L 327.73 248.48000000000002 C 327.39000000000004 248.54000000000002 327.16 248.87 327.22 249.20000000000002 C 327.28000000000003 249.55 327.6 249.77 327.95000000000005 249.71 L 329.59000000000003 249.39000000000001 C 388.32000000000005 238.94000000000003 510.45000000000005 224.44000000000003 536.74 250.50000000000003 C 544.76 258.45000000000005 542.84 268.69000000000005 533.55 280.78000000000003 C 538.56 284.00000000000006 542.13 289.07000000000005 543.74 295.40000000000003 C 580.03 271.26000000000005 604.42 248.24000000000004 592.88 235.51000000000005 C 584.42 226.18000000000004 560.9399999999999 222.64000000000004 530.69 222.64000000000004 C 468.3 222.64 377.11 237.7 329.38 248.12 z M 484.94 322.87 C 468.51 334.51 449.04 346.73 428.1 359.56 L 427.27000000000004 360.04 C 426.99000000000007 360.24 426.92 360.63 427.12000000000006 360.91 C 427.2300000000001 361.08000000000004 427.4100000000001 361.17 427.6000000000001 361.18 L 427.6600000000001 361.18 C 427.7700000000001 361.18 427.8900000000001 361.14 427.99000000000007 361.07 L 428.69000000000005 360.7 C 446.45000000000005 351.43 466.85 340.41999999999996 487.38000000000005 329.13 C 487.49000000000007 329.07 487.6000000000001 329.01 487.71000000000004 328.95 C 486.58000000000004 327.09999999999997 485.65000000000003 325.07 484.99 322.84 C 484.98 322.84 484.96 322.86 484.94 322.87 z" stroke-linecap="round" />
</g>
		<g transform="matrix(1 0 0 1 92.8 11.16)"  >
<path style="stroke: none; stroke-width: 1; stroke-dasharray: none; stroke-linecap: butt; stroke-dashoffset: 0; stroke-linejoin: miter; stroke-miterlimit: 4; fill: rgb(255,255,255); fill-rule: evenodd; opacity: 1;" vector-effect="non-scaling-stroke"  transform=" translate(-514.21, -308.46)" d="M 486.98 314.79 C 486.39000000000004 297.63 499.83000000000004 280.09000000000003 519.35 280.09000000000003 C 532.41 280.09000000000003 540.96 288.79 541.4300000000001 302.12 C 542.0600000000001 320.21 529.5000000000001 336.83 509.06000000000006 336.83 C 496.01 336.83 487.46 328.14 486.98 314.79 z M 495.48 315.33 C 495.81 325.38 502.18 333.61 510.47 333.61 C 526.5500000000001 333.61 533.39 313.87 532.9200000000001 300.68 C 532.58 290.6 526.0500000000001 282.38 517.7700000000001 282.38 C 503.93 282.39 495.01 302.05 495.48 315.33 z" stroke-linecap="round" />
</g>
		<g transform="matrix(1 0 0 1 -126.41 11.37)"  >
<path style="stroke: none; stroke-width: 1; stroke-dasharray: none; stroke-linecap: butt; stroke-dashoffset: 0; stroke-linejoin: miter; stroke-miterlimit: 4; fill: rgb(255,255,255); fill-rule: evenodd; opacity: 1;" vector-effect="non-scaling-stroke"  transform=" translate(-295, -308.68)" d="M 319 299.71 C 318.93 301.28999999999996 318.66 302.66999999999996 318.23 305.07 L 315.36 321.19 C 315.11 322.62 315.64 323.75 316.97 324.52 L 316.88000000000005 325.15 L 300.44000000000005 325.13 L 300.2900000000001 321.03 C 297.9000000000001 322.46999999999997 295.00000000000006 323.69 292.3900000000001 324.40999999999997 C 289.7900000000001 325.08 287.6800000000001 325.36999999999995 284.5100000000001 325.36999999999995 C 279.2000000000001 325.36999999999995 276.1600000000001 324.81999999999994 274.0600000000001 322.97999999999996 C 271.9300000000001 321.08 270.8900000000001 319.81999999999994 271.0000000000001 317.21 C 271.0800000000001 315.7 271.8600000000001 313.78 272.9900000000001 312.43 C 274.1300000000001 311.06 275.6800000000001 310.16 277.3700000000001 309.37 C 279.0700000000001 308.56 281.0600000000001 307.97 283.9600000000001 307.52 C 286.8700000000001 307.04999999999995 290.9200000000001 306.58 296.3400000000001 306.12 C 299.1900000000001 305.88 300.93000000000006 305.22 301.74000000000007 304.9 C 302.87000000000006 304.46 303.32000000000005 303.96999999999997 303.4800000000001 303.04999999999995 C 303.7900000000001 301.4 303.26000000000005 300.44999999999993 301.06000000000006 300.00999999999993 C 295.13000000000005 298.8399999999999 284.0300000000001 300.75999999999993 278.31000000000006 302.18999999999994 L 281.4200000000001 293.79999999999995 C 288.9700000000001 292.69999999999993 296.0400000000001 291.98999999999995 303.49000000000007 291.98999999999995 C 315.32 291.99 319.11 295.36 319 299.71 z M 302.02 310.26 C 301.32 310.52 300.41999999999996 310.78 299.29999999999995 311.02 C 298.18999999999994 311.27 296.15 311.64 293.18999999999994 312.09999999999997 C 291.1499999999999 312.41999999999996 289.73999999999995 312.84999999999997 288.92999999999995 313.41999999999996 C 288.15999999999997 313.98999999999995 287.7099999999999 314.66999999999996 287.5799999999999 315.49999999999994 C 287.4199999999999 316.38999999999993 287.7099999999999 317.0899999999999 288.4699999999999 317.6499999999999 C 289.2499999999999 318.18999999999994 290.5599999999999 318.4799999999999 292.4099999999999 318.4799999999999 C 293.7999999999999 318.4799999999999 295.1499999999999 318.2599999999999 296.4699999999999 317.8299999999999 C 297.7999999999999 317.3999999999999 298.9199999999999 316.79999999999995 299.7799999999999 316.06999999999994 C 300.4099999999999 315.5199999999999 300.8699999999999 314.81999999999994 301.2099999999999 313.98999999999995 C 301.4 313.44 301.69 312.21 302.02 310.26 z" stroke-linecap="round" />
</g>
		<g transform="matrix(1 0 0 1 -42.97 5.6)"  >
<path style="stroke: none; stroke-width: 1; stroke-dasharray: none; stroke-linecap: butt; stroke-dashoffset: 0; stroke-linejoin: miter; stroke-miterlimit: 4; fill: rgb(255,255,255); fill-rule: evenodd; opacity: 1;" vector-effect="non-scaling-stroke"  transform=" translate(-378.44, -302.91)" d="M 373.24 285.48 C 373.71000000000004 282.83000000000004 377.89 280.68 382.55 280.68 C 387.23 280.68 390.64 282.83 390.19 285.48 C 389.7 288.13 385.53 290.28000000000003 380.84 290.28000000000003 C 376.16 290.27 372.76 288.12 373.24 285.48 z M 366.66 325.14 L 372.37 292.93 L 388.11 292.93 L 382.41 325.14 L 366.66 325.14 z" stroke-linecap="round" />
</g>
		<g transform="matrix(1 0 0 1 15.57 11.43)"  >
<path style="stroke: none; stroke-width: 1; stroke-dasharray: none; stroke-linecap: butt; stroke-dashoffset: 0; stroke-linejoin: miter; stroke-miterlimit: 4; fill: rgb(255,255,255); fill-rule: evenodd; opacity: 1;" vector-effect="non-scaling-stroke"  transform=" translate(-436.99, -308.73)" d="M 460.99 299.77 C 460.92 301.34999999999997 460.65000000000003 302.74 460.22 305.13 L 457.37 321.27 C 457.12 322.69 457.65 323.81 458.97 324.59999999999997 L 458.87 325.15999999999997 L 442.43 325.18999999999994 L 442.3 321.0799999999999 C 439.90000000000003 322.5399999999999 436.99 323.74999999999994 434.40000000000003 324.44999999999993 C 431.78000000000003 325.13999999999993 429.67 325.41999999999996 426.49 325.41999999999996 C 421.19 325.41999999999996 418.16 324.89 416.06 323.03 C 413.92 321.11999999999995 412.88 319.86999999999995 412.99 317.27 C 413.05 315.76 413.84000000000003 313.81 414.97 312.49 C 416.11 311.1 417.66 310.22 419.36 309.43 C 421.06 308.63 423.06 308.04 425.93 307.56 C 428.85 307.11 432.92 306.62 438.34000000000003 306.17 C 441.16 305.93 442.90000000000003 305.29 443.71000000000004 304.98 C 444.85 304.54 445.31000000000006 304.04 445.48 303.12 C 445.77000000000004 301.49 445.25 300.53000000000003 443.07 300.08 C 437.12 298.9 426.03999999999996 300.83 420.32 302.26 L 423.40999999999997 293.87 C 430.98999999999995 292.76 438.03 292.05 445.47999999999996 292.05 C 457.31 292.04 461.08 295.44 460.99 299.77 z M 444.02 310.34 C 443.32 310.58 442.4 310.84 441.28999999999996 311.09999999999997 C 440.18999999999994 311.35999999999996 438.15 311.68999999999994 435.16999999999996 312.17999999999995 C 433.15 312.49999999999994 431.71 312.92999999999995 430.92999999999995 313.50999999999993 C 430.17999999999995 314.05999999999995 429.72999999999996 314.74999999999994 429.55999999999995 315.5799999999999 C 429.3999999999999 316.4699999999999 429.72999999999996 317.17999999999995 430.4599999999999 317.7199999999999 C 431.24999999999994 318.2699999999999 432.56999999999994 318.5399999999999 434.4199999999999 318.5399999999999 C 435.7899999999999 318.5399999999999 437.13999999999993 318.3299999999999 438.4599999999999 317.9199999999999 C 439.7999999999999 317.4699999999999 440.9199999999999 316.8999999999999 441.7899999999999 316.1599999999999 C 442.3999999999999 315.6099999999999 442.8599999999999 314.8999999999999 443.1899999999999 314.06999999999994 C 443.4 313.51 443.67 312.27 444.02 310.34 z" stroke-linecap="round" />
</g>
		<g transform="matrix(1 0 0 1 -171.8 5.5)"  >
<path style="stroke: none; stroke-width: 1; stroke-dasharray: none; stroke-linecap: butt; stroke-dashoffset: 0; stroke-linejoin: miter; stroke-miterlimit: 4; fill: rgb(255,255,255); fill-rule: evenodd; opacity: 1;" vector-effect="non-scaling-stroke"  transform=" translate(-249.62, -302.8)" d="M 268.84 313.57 C 263.71999999999997 314.58 260.83 314.98 255.76999999999998 314.98 C 248.24999999999997 314.98 242.26999999999998 311.25 242.6 304.40000000000003 C 242.82999999999998 299.84000000000003 248.23 290.22 261.95 290.22 C 266.27 290.22 269.65 290.98 274.19 293.57000000000005 L 276.19 282.38000000000005 C 270.01 280.05000000000007 265.93 279.70000000000005 260.62 279.75000000000006 C 242.64000000000001 279.95000000000005 225.35 288.13000000000005 223.21 304.75000000000006 C 221.03 321.65000000000003 241.67000000000002 325.90000000000003 250.83 325.86000000000007 C 256.12 325.8400000000001 261.62 325.63000000000005 266.75 325.0900000000001 L 268.84 313.57 z" stroke-linecap="round" />
</g>
		<g transform="matrix(1 0 0 1 -16.37 6.56)"  >
<path style="stroke: none; stroke-width: 1; stroke-dasharray: none; stroke-linecap: butt; stroke-dashoffset: 0; stroke-linejoin: miter; stroke-miterlimit: 4; fill: rgb(255,255,255); fill-rule: evenodd; opacity: 1;" vector-effect="non-scaling-stroke"  transform=" translate(-405.04, -303.87)" d="M 396.78 292.75 L 397.90999999999997 286.19 L 414.36999999999995 282.61 L 412.61999999999995 292.75 L 420.67999999999995 292.75 L 419.15 299.24 L 411.33 299.22 L 406.58 325.12 C 406.58 325.12 390.72999999999996 325.02 390.66999999999996 325.12 L 395.4 299.28000000000003 L 389.40999999999997 299.28000000000003 L 390.63 292.75000000000006 L 396.78 292.75000000000006 z" stroke-linecap="round" />
</g>
		<g transform="matrix(1 0 0 1 51.35 5.37)"  >
<path style="stroke: none; stroke-width: 1; stroke-dasharray: none; stroke-linecap: butt; stroke-dashoffset: 0; stroke-linejoin: miter; stroke-miterlimit: 4; fill: rgb(255,255,255); fill-rule: evenodd; opacity: 1;" vector-effect="non-scaling-stroke"  transform=" translate(-472.77, -302.68)" d="M 476.97 325.12 L 460.93 325.15 L 469 280.21 L 484.62 280.65 L 476.97 325.12 z" stroke-linecap="round" />
</g>
		<g transform="matrix(1 0 0 1 -79.14 17.12)"  >
<path style="stroke: none; stroke-width: 1; stroke-dasharray: none; stroke-linecap: butt; stroke-dashoffset: 0; stroke-linejoin: miter; stroke-miterlimit: 4; fill: rgb(255,255,255); fill-rule: evenodd; opacity: 1;" vector-effect="non-scaling-stroke"  transform=" translate(-342.27, -314.43)" d="M 317.16 336.26 L 324.82000000000005 293.09 L 338.65000000000003 293.09 L 337.58000000000004 298.59999999999997 C 338.78000000000003 296.95 340.70000000000005 295.59999999999997 343.34000000000003 294.49999999999994 C 346.01000000000005 293.40999999999997 349.01000000000005 292.59999999999997 352.27000000000004 292.59999999999997 C 355.88000000000005 292.59999999999997 358.1 292.78999999999996 360.8 294.18999999999994 C 363.48 295.59999999999997 365.36 297.63999999999993 366.38 300.29999999999995 C 367.42 302.91999999999996 367.63 305.86999999999995 367.07 309.06999999999994 C 366.13 314.38999999999993 363.54 318.5899999999999 359.29 321.66999999999996 C 355.06 324.74999999999994 351.27000000000004 325.55999999999995 345.84000000000003 325.58 C 343.92 325.58 342.32000000000005 325.38 340.98 325.05 C 339.68 324.71000000000004 338.64000000000004 324.3 337.85 323.79 C 337.09000000000003 323.28000000000003 336.29 322.58000000000004 335.26000000000005 321.45000000000005 L 332.69000000000005 336.25000000000006 L 317.16 336.25000000000006 z M 345.83 300.48 C 343.76 300.48 341.9 301.11 340.22999999999996 302.36 C 338.59 303.61 337.53999999999996 305.43 337.11999999999995 307.87 C 336.62999999999994 310.68 336.91999999999996 312.7 338.03 313.94 C 339.15999999999997 315.18 340.77 315.8 342.9 315.8 C 344.34 315.8 345.82 315.54 346.90999999999997 315.01 C 348.26 314.3 349.18999999999994 313.53999999999996 349.98999999999995 312.36 C 350.85999999999996 311.11 351.41999999999996 309.72 351.71999999999997 308.11 C 352.16999999999996 305.57 351.78999999999996 303.66 350.60999999999996 302.40000000000003 C 349.46 301.12 347.88 300.48 345.83 300.48 z" stroke-linecap="round" />
</g>
		<g transform="matrix(1 0 0 1 171.61 20.17)"  >
<path style="stroke: none; stroke-width: 1; stroke-dasharray: none; stroke-linecap: butt; stroke-dashoffset: 0; stroke-linejoin: miter; stroke-miterlimit: 4; fill: rgb(255,255,255); fill-rule: evenodd; opacity: 1;" vector-effect="non-scaling-stroke"  transform=" translate(-593.02, -317.47)" d="M 604.37 324.27 L 605.62 325.10999999999996 C 602.47 331.52 596.05 336.68999999999994 588.52 336.68999999999994 C 582.36 336.68999999999994 577.31 332.5899999999999 577.04 324.88999999999993 C 576.54 311.0799999999999 589.4699999999999 298.25999999999993 600.06 298.25999999999993 C 604.5999999999999 298.25999999999993 608.81 300.24999999999994 609.01 305.13999999999993 C 609.4 316.11999999999995 593.98 319.4699999999999 583.83 319.69999999999993 C 583.5 320.8499999999999 583.37 321.99999999999994 583.4300000000001 323.74999999999994 C 583.6 328.29999999999995 586.36 332.12999999999994 592.0500000000001 332.12999999999994 C 596.97 332.12 601.88 328.17 604.37 324.27 z M 602.98 304.44 C 602.89 301.84 601.59 300.1 598.91 300.1 C 592.4499999999999 300.1 585.5799999999999 312.75 584.4 317.85 C 595 317.84 603.25 311.54 602.98 304.44 z" stroke-linecap="round" />
</g>
		<g transform="matrix(1 0 0 1 137.72 20.18)"  >
<path style="stroke: none; stroke-width: 1; stroke-dasharray: none; stroke-linecap: butt; stroke-dashoffset: 0; stroke-linejoin: miter; stroke-miterlimit: 4; fill: rgb(255,255,255); fill-rule: evenodd; opacity: 1;" vector-effect="non-scaling-stroke"  transform=" translate(-559.14, -317.49)" d="M 541.21 304.08 C 542.3000000000001 303.94 544.0600000000001 303.74 544.83 303.74 C 545.99 303.74 547.07 303.96000000000004 547.13 305.11 C 547.15 305.79 545.92 310.68 545.66 311.81 L 543.1999999999999 322.64 C 542.2099999999999 327.07 541.1299999999999 331.71 540.18 335.38 L 546.4899999999999 335.38 L 550.0399999999998 318.23 C 560.8599999999999 306.96000000000004 565.0199999999999 303.29 567.5799999999998 303.29 C 568.7299999999998 303.29 569.5199999999999 303.89000000000004 569.5699999999998 305.27000000000004 C 569.6299999999998 307.26000000000005 568.4099999999999 311.76000000000005 567.9799999999998 313.05 L 564.3599999999998 325.56 C 563.5399999999997 328.37 562.9299999999998 330.91 562.9899999999998 332.73 C 563.0899999999998 335.47 564.7599999999998 336.70000000000005 567.2199999999998 336.70000000000005 C 571.8299999999998 336.70000000000005 575.1699999999998 331.89000000000004 578.0999999999998 327.1700000000001 L 577.2399999999998 325.62000000000006 C 576.0599999999998 327.52000000000004 573.3199999999998 331.6600000000001 571.1599999999997 331.6600000000001 C 570.4799999999998 331.6600000000001 569.8399999999997 331.2000000000001 569.8199999999997 330.06000000000006 C 569.7499999999997 328.6000000000001 570.3699999999997 326.4200000000001 570.7899999999997 324.96000000000004 L 574.8099999999997 310.31000000000006 C 575.8899999999998 306.2800000000001 576.3999999999997 303.68000000000006 576.3799999999998 302.2900000000001 C 576.2799999999997 299.55000000000007 574.6799999999997 298.2700000000001 572.2399999999998 298.2700000000001 C 568.0899999999998 298.2700000000001 562.5699999999998 301.30000000000007 550.9099999999997 314.7300000000001 L 550.7399999999998 314.7300000000001 L 552.2099999999998 308.18000000000006 C 553.0099999999998 304.5900000000001 553.7899999999998 300.86000000000007 554.5499999999998 298.27000000000004 C 550.5099999999999 299.73 544.7199999999998 301.36 541.1499999999999 302.04 L 541.21 304.08 z" stroke-linecap="round" />
</g>
		<g transform="matrix(1 0 0 1 190.87 -0.83)"  >
<path style="stroke: none; stroke-width: 1; stroke-dasharray: none; stroke-linecap: butt; stroke-dashoffset: 0; stroke-linejoin: miter; stroke-miterlimit: 4; fill: rgb(255,255,255); fill-rule: evenodd; opacity: 1;" vector-effect="non-scaling-stroke"  transform=" translate(-612.29, -296.48)" d="M 610.77 297.51 C 610.79 297.84 610.86 298.11 610.99 298.32 C 611.24 298.7 611.69 298.9 612.33 298.9 C 612.61 298.9 612.88 298.85999999999996 613.11 298.77 C 613.57 298.59999999999997 613.79 298.31 613.79 297.89 C 613.79 297.57 613.6899999999999 297.34 613.5 297.21 C 613.31 297.08 613 296.96 612.58 296.85999999999996 L 611.82 296.68999999999994 C 611.32 296.56999999999994 610.96 296.43999999999994 610.7600000000001 296.29999999999995 C 610.4000000000001 296.05999999999995 610.2200000000001 295.68999999999994 610.2200000000001 295.21 C 610.2200000000001 294.68 610.4000000000001 294.25 610.7500000000001 293.90999999999997 C 611.1000000000001 293.57 611.6000000000001 293.4 612.2500000000001 293.4 C 612.8400000000001 293.4 613.3500000000001 293.54999999999995 613.7600000000001 293.84999999999997 C 614.1800000000001 294.14 614.3900000000001 294.61999999999995 614.3900000000001 295.26 L 613.6500000000001 295.26 C 613.6100000000001 294.95 613.5300000000001 294.71 613.4100000000001 294.53999999999996 C 613.1800000000001 294.22999999999996 612.7800000000001 294.08 612.2300000000001 294.08 C 611.7800000000001 294.08 611.4600000000002 294.18 611.2600000000001 294.37 C 611.07 294.57 610.9700000000001 294.79 610.9700000000001 295.06 C 610.9700000000001 295.34 611.0800000000002 295.55 611.3100000000002 295.69 C 611.4600000000002 295.78 611.8100000000002 295.88 612.3400000000001 296.01 L 613.1300000000001 296.19 C 613.5200000000001 296.29 613.8100000000001 296.4 614.0200000000001 296.56 C 614.3800000000001 296.83 614.5600000000001 297.23 614.5600000000001 297.75 C 614.5600000000001 298.39 614.33 298.86 613.87 299.14 C 613.41 299.41999999999996 612.88 299.56 612.27 299.56 C 611.56 299.56 611.01 299.37 610.61 299 C 610.21 298.63 610.01 298.13 610.02 297.5 L 610.77 297.5 z" stroke-linecap="round" />
</g>
		<g transform="matrix(1 0 0 1 197.06 -0.83)"  >
<path style="stroke: none; stroke-width: 1; stroke-dasharray: none; stroke-linecap: butt; stroke-dashoffset: 0; stroke-linejoin: miter; stroke-miterlimit: 4; fill: rgb(255,255,255); fill-rule: evenodd; opacity: 1;" vector-effect="non-scaling-stroke"  transform=" translate(-618.48, -296.48)" d="M 615.67 293.56 L 616.81 293.56 L 618.4899999999999 298.5 L 620.1599999999999 293.56 L 621.2899999999998 293.56 L 621.2899999999998 299.4 L 620.5299999999999 299.4 L 620.5299999999999 295.95 C 620.5299999999999 295.84 620.5299999999999 295.63 620.5399999999998 295.36 C 620.5499999999998 295.08000000000004 620.5499999999998 294.79 620.5499999999998 294.47 L 618.8799999999999 299.40000000000003 L 618.0999999999999 299.40000000000003 L 616.42 294.47 L 616.42 294.65000000000003 C 616.42 294.79 616.42 295.01000000000005 616.43 295.3 C 616.4399999999999 295.59000000000003 616.4399999999999 295.8 616.4399999999999 295.94 L 616.4399999999999 299.39 L 615.68 299.39 L 615.68 293.56 z" stroke-linecap="round" />
</g>
</g>
</g>
</svg>